<mxfile host="app.diagrams.net" modified="2021-11-25T08:19:30.874Z" agent="5.0 (Windows NT 10.0; Win64; x64) AppleWebKit/537.36 (KHTML, like Gecko) Chrome/94.0.4606.61 Safari/537.36" etag="TQ08WuHrnAIk5Un0xDbZ" version="15.8.3" type="github">
  <diagram id="sd3GTHUhBqNxUHbDwR1l" name="Page-1">
    <mxGraphModel dx="944" dy="576" grid="1" gridSize="10" guides="1" tooltips="1" connect="1" arrows="1" fold="1" page="1" pageScale="1" pageWidth="827" pageHeight="1169" math="0" shadow="0">
      <root>
        <mxCell id="0" />
        <mxCell id="1" parent="0" />
        <mxCell id="OxAM4Z86c5RSseaQz4nF-7" style="edgeStyle=orthogonalEdgeStyle;rounded=0;orthogonalLoop=1;jettySize=auto;html=1;exitX=0.5;exitY=1;exitDx=0;exitDy=0;exitPerimeter=0;" edge="1" parent="1" source="OxAM4Z86c5RSseaQz4nF-1">
          <mxGeometry relative="1" as="geometry">
            <mxPoint x="430" y="270" as="targetPoint" />
          </mxGeometry>
        </mxCell>
        <mxCell id="OxAM4Z86c5RSseaQz4nF-1" value="buyer" style="strokeWidth=2;html=1;shape=mxgraph.flowchart.start_2;whiteSpace=wrap;" vertex="1" parent="1">
          <mxGeometry x="220" y="120" width="80" height="80" as="geometry" />
        </mxCell>
        <mxCell id="OxAM4Z86c5RSseaQz4nF-6" style="edgeStyle=orthogonalEdgeStyle;rounded=0;orthogonalLoop=1;jettySize=auto;html=1;exitX=0.5;exitY=1;exitDx=0;exitDy=0;exitPerimeter=0;entryX=0.5;entryY=0;entryDx=0;entryDy=0;" edge="1" parent="1" source="OxAM4Z86c5RSseaQz4nF-2" target="OxAM4Z86c5RSseaQz4nF-5">
          <mxGeometry relative="1" as="geometry" />
        </mxCell>
        <mxCell id="OxAM4Z86c5RSseaQz4nF-2" value="seller" style="strokeWidth=2;html=1;shape=mxgraph.flowchart.start_2;whiteSpace=wrap;" vertex="1" parent="1">
          <mxGeometry x="390" y="120" width="80" height="80" as="geometry" />
        </mxCell>
        <mxCell id="OxAM4Z86c5RSseaQz4nF-8" style="edgeStyle=orthogonalEdgeStyle;rounded=0;orthogonalLoop=1;jettySize=auto;html=1;exitX=0.5;exitY=1;exitDx=0;exitDy=0;exitPerimeter=0;" edge="1" parent="1" source="OxAM4Z86c5RSseaQz4nF-3">
          <mxGeometry relative="1" as="geometry">
            <mxPoint x="430" y="270" as="targetPoint" />
          </mxGeometry>
        </mxCell>
        <mxCell id="OxAM4Z86c5RSseaQz4nF-3" value="admin" style="strokeWidth=2;html=1;shape=mxgraph.flowchart.start_2;whiteSpace=wrap;" vertex="1" parent="1">
          <mxGeometry x="560" y="120" width="80" height="80" as="geometry" />
        </mxCell>
        <mxCell id="OxAM4Z86c5RSseaQz4nF-17" style="edgeStyle=orthogonalEdgeStyle;rounded=0;orthogonalLoop=1;jettySize=auto;html=1;exitX=0.5;exitY=1;exitDx=0;exitDy=0;exitPerimeter=0;entryX=1;entryY=0.5;entryDx=0;entryDy=0;" edge="1" parent="1" source="OxAM4Z86c5RSseaQz4nF-4" target="OxAM4Z86c5RSseaQz4nF-16">
          <mxGeometry relative="1" as="geometry" />
        </mxCell>
        <mxCell id="OxAM4Z86c5RSseaQz4nF-4" value="MySQL DB" style="shape=cylinder3;whiteSpace=wrap;html=1;boundedLbl=1;backgroundOutline=1;size=15;" vertex="1" parent="1">
          <mxGeometry x="660" y="502.5" width="130" height="105" as="geometry" />
        </mxCell>
        <mxCell id="OxAM4Z86c5RSseaQz4nF-12" style="edgeStyle=orthogonalEdgeStyle;rounded=0;orthogonalLoop=1;jettySize=auto;html=1;entryX=0.5;entryY=0;entryDx=0;entryDy=0;" edge="1" parent="1" source="OxAM4Z86c5RSseaQz4nF-5" target="OxAM4Z86c5RSseaQz4nF-10">
          <mxGeometry relative="1" as="geometry" />
        </mxCell>
        <mxCell id="OxAM4Z86c5RSseaQz4nF-5" value="&lt;span style=&quot;color: rgb(50 , 50 , 50) ; font-size: 13px ; background-color: rgba(255 , 255 , 255 , 0.01)&quot;&gt;Send request to interface&lt;/span&gt;" style="verticalLabelPosition=middle;verticalAlign=middle;html=1;shape=trapezoid;perimeter=trapezoidPerimeter;whiteSpace=wrap;size=0.23;arcSize=10;flipV=1;labelPosition=center;align=center;" vertex="1" parent="1">
          <mxGeometry x="330" y="270" width="200" height="70" as="geometry" />
        </mxCell>
        <mxCell id="OxAM4Z86c5RSseaQz4nF-14" style="edgeStyle=orthogonalEdgeStyle;rounded=0;orthogonalLoop=1;jettySize=auto;html=1;exitX=0.5;exitY=1;exitDx=0;exitDy=0;entryX=0.5;entryY=0;entryDx=0;entryDy=0;" edge="1" parent="1" source="OxAM4Z86c5RSseaQz4nF-10" target="OxAM4Z86c5RSseaQz4nF-13">
          <mxGeometry relative="1" as="geometry" />
        </mxCell>
        <mxCell id="OxAM4Z86c5RSseaQz4nF-10" value="&lt;span style=&quot;color: rgb(50 , 50 , 50) ; font-size: 13px ; background-color: rgba(255 , 255 , 255 , 0.01)&quot;&gt;parse request&lt;/span&gt;" style="rounded=0;whiteSpace=wrap;html=1;" vertex="1" parent="1">
          <mxGeometry x="342" y="410" width="176" height="60" as="geometry" />
        </mxCell>
        <mxCell id="OxAM4Z86c5RSseaQz4nF-15" style="edgeStyle=orthogonalEdgeStyle;rounded=0;orthogonalLoop=1;jettySize=auto;html=1;exitX=1;exitY=0.5;exitDx=0;exitDy=0;entryX=0;entryY=0.5;entryDx=0;entryDy=0;entryPerimeter=0;" edge="1" parent="1" source="OxAM4Z86c5RSseaQz4nF-13" target="OxAM4Z86c5RSseaQz4nF-4">
          <mxGeometry relative="1" as="geometry" />
        </mxCell>
        <mxCell id="OxAM4Z86c5RSseaQz4nF-13" value="&lt;span style=&quot;color: rgb(50 , 50 , 50) ; font-size: 13px ; background-color: rgba(255 , 255 , 255 , 0.01)&quot;&gt;request data from DB&lt;/span&gt;" style="rounded=0;whiteSpace=wrap;html=1;" vertex="1" parent="1">
          <mxGeometry x="342" y="525" width="176" height="60" as="geometry" />
        </mxCell>
        <mxCell id="OxAM4Z86c5RSseaQz4nF-19" style="edgeStyle=orthogonalEdgeStyle;rounded=0;orthogonalLoop=1;jettySize=auto;html=1;exitX=0;exitY=0.5;exitDx=0;exitDy=0;entryX=0.5;entryY=1;entryDx=0;entryDy=0;entryPerimeter=0;" edge="1" parent="1" source="OxAM4Z86c5RSseaQz4nF-16" target="OxAM4Z86c5RSseaQz4nF-18">
          <mxGeometry relative="1" as="geometry" />
        </mxCell>
        <mxCell id="OxAM4Z86c5RSseaQz4nF-16" value="&lt;span style=&quot;color: rgb(50 , 50 , 50) ; font-size: 13px ; background-color: rgba(255 , 255 , 255 , 0.01)&quot;&gt;get specufuc information&lt;/span&gt;" style="rounded=0;whiteSpace=wrap;html=1;" vertex="1" parent="1">
          <mxGeometry x="342" y="650" width="176" height="60" as="geometry" />
        </mxCell>
        <mxCell id="OxAM4Z86c5RSseaQz4nF-20" style="edgeStyle=orthogonalEdgeStyle;rounded=0;orthogonalLoop=1;jettySize=auto;html=1;exitX=0.5;exitY=0;exitDx=0;exitDy=0;exitPerimeter=0;entryX=0.5;entryY=0;entryDx=0;entryDy=0;entryPerimeter=0;" edge="1" parent="1" source="OxAM4Z86c5RSseaQz4nF-18" target="OxAM4Z86c5RSseaQz4nF-3">
          <mxGeometry relative="1" as="geometry">
            <Array as="points">
              <mxPoint x="140" y="60" />
              <mxPoint x="600" y="60" />
            </Array>
          </mxGeometry>
        </mxCell>
        <mxCell id="OxAM4Z86c5RSseaQz4nF-21" style="edgeStyle=orthogonalEdgeStyle;rounded=0;orthogonalLoop=1;jettySize=auto;html=1;exitX=0.5;exitY=0;exitDx=0;exitDy=0;exitPerimeter=0;entryX=0.5;entryY=0;entryDx=0;entryDy=0;entryPerimeter=0;" edge="1" parent="1" source="OxAM4Z86c5RSseaQz4nF-18" target="OxAM4Z86c5RSseaQz4nF-2">
          <mxGeometry relative="1" as="geometry">
            <Array as="points">
              <mxPoint x="140" y="60" />
              <mxPoint x="430" y="60" />
            </Array>
          </mxGeometry>
        </mxCell>
        <mxCell id="OxAM4Z86c5RSseaQz4nF-22" style="edgeStyle=orthogonalEdgeStyle;rounded=0;orthogonalLoop=1;jettySize=auto;html=1;exitX=0.5;exitY=0;exitDx=0;exitDy=0;exitPerimeter=0;entryX=0.5;entryY=0;entryDx=0;entryDy=0;entryPerimeter=0;" edge="1" parent="1" source="OxAM4Z86c5RSseaQz4nF-18" target="OxAM4Z86c5RSseaQz4nF-1">
          <mxGeometry relative="1" as="geometry">
            <Array as="points">
              <mxPoint x="140" y="60" />
              <mxPoint x="260" y="60" />
            </Array>
          </mxGeometry>
        </mxCell>
        <mxCell id="OxAM4Z86c5RSseaQz4nF-18" value="web display information" style="strokeWidth=2;html=1;shape=mxgraph.flowchart.display;whiteSpace=wrap;" vertex="1" parent="1">
          <mxGeometry x="60" y="410" width="160" height="70" as="geometry" />
        </mxCell>
      </root>
    </mxGraphModel>
  </diagram>
</mxfile>
